<svg xmlns="http://www.w3.org/2000/svg" xmlns:xlink="http://www.w3.org/1999/xlink" style="width:0;height:0;visibility:hidden;">
  
<defs />
  <symbol id="rd-icon-spotter" viewBox="0 0 1 0.68" fill="#006BD3">
  <path xmlns="http://www.w3.org/2000/svg" d="M.5 0a0.33 0.33 0 1 0 0 0.659 0.33 0.33 0 0 0 0 -0.659m0.22 0.495 -0.197 -0.102a0.022 0.022 0 0 0 -0.026 0.004l-0.157 0.157a0.004 0.004 0 0 1 -0.006 -0.005l0.102 -0.197a0.022 0.022 0 0 0 -0.004 -0.026l-0.157 -0.157a0.004 0.004 0 0 1 0 -0.005 0.004 0.004 0 0 1 0.005 -0.001l0.197 0.102a0.022 0.022 0 0 0 0.026 -0.004l0.157 -0.157a0.004 0.004 0 0 1 0.006 0.004l-0.102 0.197a0.022 0.022 0 0 0 0.004 0.026l0.157 0.157a0.004 0.004 0 0 1 -0.004 0.006" fill="#006BD3" />
</symbol>
</svg>
